<svg width="24" height="30" viewBox="0 0 24 30" fill="none" xmlns="http://www.w3.org/2000/svg">
<path d="M22.7115 10.7197H4.50232V9.64852C4.49906 5.5075 7.85336 2.14794 11.9943 2.14467C15.0537 2.14229 17.8077 3.99884 18.9529 6.83573C19.1785 7.38263 19.8047 7.6431 20.3516 7.41753C20.8932 7.19416 21.1549 6.57696 20.9388 6.03238C18.9449 1.09574 13.3265 -1.28983 8.3899 0.704169C4.74389 2.17687 2.35769 5.71638 2.36008 9.64858V10.7197H1.28893C0.697335 10.7197 0.217773 11.1993 0.217773 11.7909V28.929C0.217773 29.5206 0.697335 30.0002 1.28893 30.0002H22.7115C23.3031 30.0002 23.7827 29.5206 23.7827 28.929V11.7908C23.7827 11.1992 23.3031 10.7197 22.7115 10.7197ZM21.6405 27.8578H2.36008V12.862H21.6405V27.8578Z" fill="black"/>
</svg>
