<svg width="30" height="28" viewBox="0 0 30 28" fill="none" xmlns="http://www.w3.org/2000/svg">
<path d="M4.36672 27.2075H2.24101L3.74414 25.7044C4.55462 24.8939 5.06073 23.8398 5.1968 22.6963C3.08189 21.3084 1.53537 19.4824 0.707527 17.3883C-0.119734 15.2958 -0.223692 12.9924 0.406923 10.7269C1.16357 8.00855 2.93825 5.53087 5.40395 3.7502C8.08338 1.81527 11.419 0.79248 15.0501 0.79248C19.6245 0.79248 23.4801 2.10672 26.2001 4.59302C28.6505 6.83296 30 9.85432 30 13.1006C30 14.6778 29.6789 16.2124 29.0456 17.6618C28.3902 19.1616 27.4305 20.4971 26.1931 21.631C23.4695 24.1271 19.6163 25.4465 15.0501 25.4465C13.355 25.4465 11.5862 25.2203 10.007 24.805C8.51218 26.3384 6.48661 27.2075 4.36672 27.2075ZM15.0501 2.55348C7.76904 2.55348 3.30131 6.89571 2.10342 11.1991C0.971443 15.2659 2.64011 19.1086 6.56715 21.4784L7.00594 21.7432L6.99243 22.2555C6.96567 23.2695 6.72394 24.2461 6.29126 25.129C7.34487 24.7725 8.30092 24.1262 9.04958 23.2417L9.42186 22.8019L9.97393 22.967C11.5232 23.4304 13.3259 23.6855 15.0501 23.6855C24.1118 23.6855 28.239 18.1987 28.239 13.1006C28.239 10.3549 27.093 7.79506 25.0119 5.89282C22.6221 3.70823 19.1773 2.55348 15.0501 2.55348Z" fill="black"/>
</svg>
