<svg width="10" height="9" viewBox="0 0 10 9" fill="none" xmlns="http://www.w3.org/2000/svg">
<path d="M9.84015 3.77111L6.2288 0.159673C6.12571 0.0565849 5.98832 0 5.84181 0C5.69515 0 5.55783 0.0566662 5.45474 0.159673L5.12686 0.487638C5.02385 0.590564 4.96711 0.728043 4.96711 0.874627C4.96711 1.02113 5.02385 1.16324 5.12686 1.26617L7.23367 3.37761L0.540239 3.37761C0.238453 3.37761 0 3.61387 0 3.91574L0 4.3794C0 4.68126 0.238453 4.94134 0.540239 4.94134L7.25757 4.94134L5.12694 7.06458C5.02394 7.16767 4.96719 7.3014 4.96719 7.44799C4.96719 7.59441 5.02394 7.7301 5.12694 7.83311L5.45483 8.16002C5.55791 8.2631 5.69523 8.31928 5.8419 8.31928C5.9884 8.31928 6.12579 8.26237 6.22888 8.15928L9.84023 4.54793C9.94356 4.44452 10.0004 4.30647 9.99998 4.15972C10.0003 4.01249 9.94356 3.87436 9.84015 3.77111Z" fill="black"/>
</svg>
