<svg width="15" height="13" viewBox="0 0 15 13" fill="none" xmlns="http://www.w3.org/2000/svg">
<path d="M14.7602 5.65667L9.34321 0.239511C9.18858 0.0848774 8.98249 0 8.76273 0C8.54273 0 8.33676 0.0849994 8.18213 0.239511L7.6903 0.731458C7.53579 0.885848 7.45067 1.09207 7.45067 1.31194C7.45067 1.5317 7.53579 1.74487 7.6903 1.89926L10.8505 5.06643L0.810359 5.06643C0.35768 5.06643 0 5.42082 0 5.87362L0 6.5691C0 7.0219 0.35768 7.41202 0.810359 7.41202L10.8864 7.41202L7.69042 10.5969C7.53591 10.7515 7.45079 10.9521 7.45079 11.172C7.45079 11.3916 7.53591 11.5952 7.69042 11.7497L8.18225 12.24C8.33688 12.3947 8.54286 12.4789 8.76285 12.4789C8.98261 12.4789 9.1887 12.3936 9.34334 12.2389L14.7604 6.82191C14.9154 6.66678 15.0006 6.45971 15 6.23959C15.0005 6.01874 14.9154 5.81155 14.7602 5.65667Z" fill="black"/>
</svg>
