<svg width="20" height="18" viewBox="0 0 20 18" fill="none" xmlns="http://www.w3.org/2000/svg">
<path d="M0.319703 9.77712L7.5424 17C7.74857 17.2062 8.02337 17.3193 8.31637 17.3193C8.6097 17.3193 8.88433 17.206 9.09051 17L9.74628 16.3441C9.95229 16.1382 10.0658 15.8632 10.0658 15.5701C10.0658 15.2771 9.95229 14.9928 9.74628 14.787L5.53266 10.5641L18.9195 10.5641C19.5231 10.5641 20 10.0916 20 9.48785L20 8.56055C20 7.95681 19.5231 7.43665 18.9195 7.43665L5.48486 7.43665L9.74612 3.19018C9.95213 2.98401 10.0656 2.71653 10.0656 2.42336C10.0656 2.13052 9.95213 1.85913 9.74612 1.65312L9.09035 0.999305C8.88417 0.793128 8.60954 0.680772 8.31621 0.680772C8.02321 0.680772 7.74841 0.794591 7.54224 1.00077L0.319541 8.22347C0.112876 8.4303 -0.00078126 8.7064 3.12449e-05 8.99989C-0.000619187 9.29436 0.112876 9.57062 0.319703 9.77712Z" fill="black"/>
</svg>
