<svg width="20" height="18" viewBox="0 0 20 18" fill="none" xmlns="http://www.w3.org/2000/svg">
<path d="M19.6803 8.22288L12.4576 1.00001C12.2514 0.793834 11.9766 0.680664 11.6836 0.680664C11.3903 0.680664 11.1157 0.793996 10.9095 1.00001L10.2537 1.65594C10.0477 1.86179 9.93421 2.13675 9.93421 2.42992C9.93421 2.72292 10.0477 3.00715 10.2537 3.213L14.4673 7.43589H1.08048C0.476906 7.43589 0 7.90841 0 8.51215V9.43945C0 10.0432 0.476906 10.5633 1.08048 10.5633H14.5151L10.2539 14.8098C10.0479 15.016 9.93438 15.2835 9.93438 15.5766C9.93438 15.8695 10.0479 16.1409 10.2539 16.3469L10.9097 17.0007C11.1158 17.2069 11.3905 17.3192 11.6838 17.3192C11.9768 17.3192 12.2516 17.2054 12.4578 16.9992L19.6805 9.77652C19.8871 9.5697 20.0008 9.2936 20 9.00011C20.0006 8.70564 19.8871 8.42938 19.6803 8.22288Z" fill="black"/>
</svg>
